<?xml version="1.0" standalone="no"?><svg xmlns="http://www.w3.org/2000/svg" xmlns:xlink="http://www.w3.org/1999/xlink" style="isolation:isolate" viewBox="0 0 250 71.94" width="250" height="71.94"><defs><clipPath id="_clipPath_ffD0IzvkuNnjMUJGBFpPh9zH2o2u4FLq"><rect width="250" height="71.94"/></clipPath></defs><g clip-path="url(#_clipPath_ffD0IzvkuNnjMUJGBFpPh9zH2o2u4FLq)"><g id="QUnit-Logo"><g id="g12"><g id="Text"><path d=" M 172.445 16.834 L 163.64 16.834 C 163.153 16.834 162.669 17.345 162.557 17.822 L 159.431 32.338 L 156.309 47.115 C 156.202 47.593 155.719 48.299 155.228 48.299 L 148.996 48.299 C 142.837 48.299 143.55 43.747 144.811 37.903 L 147.335 24.88 L 148.754 17.822 C 148.855 17.345 148.538 16.834 148.048 16.834 L 139.004 16.834 C 138.517 16.834 138.038 17.345 137.935 17.822 L 133.865 37.239 C 131.629 47.462 132.224 56.94 144.393 57.241 C 144.585 57.244 163.865 57.241 163.865 57.241 C 164.352 57.241 164.84 57.116 164.937 56.641 L 169.028 37.156 L 173.15 17.75 C 173.255 17.272 172.935 16.834 172.445 16.834" fill="#2f2d2e"/><path d=" M 119.438 35.833 L 117.649 42.155 L 115.923 47.726 C 115.813 48.112 115.25 48.371 114.851 48.371 L 106.459 48.371 C 100.09 48.371 98.544 43.451 100.09 36.108 C 101.638 28.595 104.821 23.958 111.085 23.481 C 119.647 22.834 121.508 28.885 119.438 35.833 M 124.907 48.054 C 124.907 48.054 128.861 38.439 129.766 32.897 C 130.981 25.463 127.269 14.694 112.903 14.694 C 98.619 14.694 92.415 24.979 90.05 36.159 C 87.686 47.423 90.787 57.299 104.984 57.214 L 126.666 57.139 C 127.065 57.136 127.478 56.816 127.581 56.43 L 129.406 49.47 C 129.508 49.081 129.259 48.757 128.854 48.753 L 127.115 48.747 L 125.358 48.734 C 125.02 48.727 124.822 48.512 124.865 48.218 L 124.907 48.054 Z " fill="#2f2d2e"/><path d=" M 200.561 55.841 C 200.433 56.486 199.792 57.215 199.138 57.215 L 191.38 57.215 C 190.726 57.215 190.305 56.486 190.432 55.845 C 190.432 55.845 193.558 40.75 193.708 40.116 C 193.708 40.116 195.045 34.434 190.838 34.434 L 187.281 34.434 C 186.62 34.434 185.979 34.967 185.843 35.605 L 181.516 55.841 C 181.382 56.483 180.738 57.215 180.085 57.215 L 172.585 57.215 C 171.938 57.215 171.509 56.486 171.647 55.845 L 177.812 26.623 C 177.95 25.982 178.591 25.208 179.244 25.208 C 179.244 25.208 192.139 25.208 195.045 25.208 C 207.78 25.208 203.928 39.442 203.928 39.442 C 203.755 40.063 200.561 55.841 200.561 55.841" fill="#2f2d2e"/><path d=" M 218.928 23.579 C 216.122 23.579 214.07 22.703 214.815 19.221 C 215.566 15.733 217.993 14.863 220.791 14.863 C 223.469 14.863 225.588 15.733 224.835 19.221 C 224.093 22.638 221.664 23.579 218.928 23.579 Z  M 216.443 55.845 C 216.309 56.486 215.658 57.215 215.005 57.215 L 207.184 57.215 C 206.53 57.215 206.118 56.486 206.256 55.851 L 212.562 26.882 C 212.705 26.248 213.345 25.608 213.993 25.608 L 221.594 25.608 C 222.251 25.608 222.67 26.343 222.539 26.984 L 216.443 55.845" fill="#2f2d2e"/><path d=" M 227.963 57.241 C 227.318 57.215 226.911 56.466 227.052 55.826 L 231.903 33.747 C 232.042 33.116 231.626 32.59 230.972 32.59 L 227.238 32.59 C 226.588 32.59 226.176 32.073 226.33 31.435 L 227.382 26.888 C 227.536 26.253 228.197 25.587 228.847 25.587 L 232.937 25.587 C 233.581 25.587 234.231 25.221 234.372 24.573 L 235.598 19.316 C 235.733 18.679 236.38 18.538 237.037 18.538 L 243.16 18.538 C 243.811 18.538 244.232 18.754 244.095 19.391 L 242.904 24.73 C 242.771 25.371 243.192 25.587 243.84 25.587 L 249.058 25.587 C 249.706 25.587 250.118 26.253 249.97 26.888 L 248.901 31.465 C 248.758 32.102 248.097 32.645 247.447 32.645 L 242.623 32.645 C 241.973 32.645 241.326 33.214 241.178 33.852 L 236.327 56.103 C 236.196 56.741 235.549 57.261 234.902 57.24 L 227.963 57.241" fill="#2f2d2e"/></g><g id="Logo"><path d=" M 71.939 63.925 C 71.939 67.817 68.015 71.936 64.11 71.936 L 7.426 71.936 C 3.531 71.936 0 67.817 0 63.925 L 0 7.23 C 0 3.338 3.531 0 7.426 0 L 64.11 0 C 68.015 0 71.939 3.338 71.939 7.23 L 71.939 63.925 Z " fill="rgb(153,32,148)"/><line x1="63.369" y1="38.673" x2="61.526" y2="47.333"/><line x1="58.637" y1="38.673" x2="57.24" y2="45.142"/><path d=" M 63.051 38.045 L 59.12 38.045 C 58.898 38.045 58.677 38.341 58.637 38.553 L 57.24 45.079 L 55.848 51.857 C 55.798 52.078 55.577 52.569 55.359 52.569 L 52.975 52.569 L 52.576 52.569 C 49.82 52.569 50.136 50.378 50.696 47.768 L 50.721 47.539 L 50.779 47.136 L 50.79 47.042 L 50.921 46.352 L 51.053 45.624 C 51.095 45.411 51.156 45.086 51.193 44.886 L 51.83 41.78 L 52.469 38.553 C 52.515 38.341 52.37 38.045 52.153 38.045 L 48.11 38.045 C 47.89 38.045 47.674 38.341 47.633 38.553 L 46.988 42.737 L 46.039 47.136 C 45.035 51.706 45.08 56.033 50.514 56.033 L 50.671 56.033 L 59.207 56.033 C 59.429 56.033 59.644 56.033 59.685 55.811 L 61.526 47.238 L 63.369 38.507 C 63.418 38.302 63.274 38.045 63.051 38.045" fill="rgb(255,255,255)"/><path d=" M 34.495 35.008 L 32.898 41.377 L 31.345 46.677 C 31.247 47.068 30.734 47.032 30.367 47.032 L 22.834 47.032 C 17.132 47.032 15.74 42.379 17.132 34.979 C 18.526 27.419 21.377 22.903 26.998 22.421 C 34.687 21.776 36.351 28.012 34.495 35.008 M 39.396 47.309 C 39.396 47.309 42.947 37.641 43.75 32.045 C 44.843 24.572 41.516 13.73 28.625 13.73 C 15.813 13.73 10.242 24.081 8.118 35.336 C 5.997 46.673 8.779 56.618 21.519 56.539 L 31.578 56.495 L 40.98 56.459 C 41.332 56.459 41.705 56.128 41.797 55.74 L 43.432 48.74 C 43.524 48.342 43.305 48.021 42.943 48.021 L 41.375 48.006 L 39.805 47.997 C 39.491 47.99 39.321 47.775 39.353 47.471 L 39.396 47.309" fill="rgb(255,255,255)"/></g></g></g></g></svg>
