<?xml version="1.0" standalone="no"?><!-- Generator: Gravit.io --><svg xmlns="http://www.w3.org/2000/svg" xmlns:xlink="http://www.w3.org/1999/xlink" style="isolation:isolate" viewBox="0 0 80 80" width="80" height="80"><defs><clipPath id="_clipPath_64ZydZ47EC70fDJieLDKGDzxrhzzrzca"><rect width="80" height="80"/></clipPath></defs><g clip-path="url(#_clipPath_64ZydZ47EC70fDJieLDKGDzxrhzzrzca)"><g id="g12"><path d=" M 80 71.094 C 80 75.421 75.636 80.003 71.294 80.003 L 8.258 80.003 C 3.927 80.003 0 75.421 0 71.094 L 0 8.043 C 0 3.715 3.927 0.003 8.258 0.003 L 71.294 0.003 C 75.636 0.003 80 3.715 80 8.043 L 80 71.094 Z " fill="rgb(153,32,148)"/><line x1="70.469" y1="43.01" x2="68.42" y2="52.641"/><line x1="65.207" y1="43.01" x2="63.654" y2="50.205"/><path d=" M 70.115 42.313 L 65.744 42.313 C 65.498 42.313 65.252 42.642 65.207 42.878 L 63.654 50.135 L 62.105 57.672 C 62.05 57.919 61.804 58.464 61.562 58.464 L 58.911 58.464 L 58.467 58.464 C 55.402 58.464 55.754 56.028 56.376 53.126 L 56.404 52.871 L 56.469 52.422 L 56.481 52.318 L 56.626 51.551 L 56.774 50.741 C 56.82 50.504 56.888 50.143 56.929 49.92 L 57.638 46.467 L 58.348 42.878 C 58.399 42.642 58.238 42.313 57.996 42.313 L 53.5 42.313 C 53.256 42.313 53.016 42.642 52.97 42.878 L 52.253 47.531 L 51.197 52.422 C 50.081 57.505 50.131 62.317 56.174 62.317 L 56.349 62.317 L 65.841 62.317 C 66.087 62.317 66.327 62.317 66.373 62.07 L 68.42 52.536 L 70.469 42.826 C 70.524 42.598 70.363 42.313 70.115 42.313" fill="rgb(255,255,255)"/><path d=" M 38.36 38.935 L 36.584 46.018 L 34.858 51.912 C 34.748 52.347 34.178 52.307 33.769 52.307 L 25.392 52.307 C 19.052 52.307 17.503 47.133 19.052 38.903 C 20.602 30.495 23.772 25.473 30.023 24.937 C 38.574 24.22 40.424 31.155 38.36 38.935 M 43.811 52.615 C 43.811 52.615 47.759 41.863 48.652 35.64 C 49.868 27.33 46.167 15.272 31.832 15.272 C 17.585 15.272 11.389 26.783 9.028 39.299 C 6.669 51.908 9.763 62.967 23.93 62.88 L 35.117 62.831 L 45.572 62.791 C 45.963 62.791 46.378 62.422 46.48 61.991 L 48.299 54.207 C 48.401 53.764 48.157 53.407 47.755 53.407 L 46.011 53.39 L 44.266 53.38 C 43.916 53.372 43.727 53.133 43.762 52.795 L 43.811 52.615" fill="rgb(255,255,255)"/></g></g></svg>