<?xml version="1.0" standalone="no"?><!-- Generator: Gravit.io --><svg xmlns="http://www.w3.org/2000/svg" xmlns:xlink="http://www.w3.org/1999/xlink" style="isolation:isolate" viewBox="0 0 250 66.21" width="250" height="66.21"><defs><clipPath id="_clipPath_cA70bfA7P1bkhRYLkY2EGgW45xQxlrOM"><rect width="250" height="66.21"/></clipPath></defs><g clip-path="url(#_clipPath_cA70bfA7P1bkhRYLkY2EGgW45xQxlrOM)"><g id="g12"><path d=" M 129.323 3.335 L 115.624 3.335 C 114.865 3.335 114.112 4.13 113.938 4.871 L 109.075 27.459 L 104.217 50.452 C 104.05 51.196 103.298 52.293 102.535 52.293 L 92.836 52.293 C 83.253 52.293 84.363 45.212 86.326 36.118 L 90.253 15.854 L 92.46 4.871 C 92.618 4.13 92.124 3.335 91.361 3.335 L 77.29 3.335 C 76.532 3.335 75.786 4.13 75.627 4.871 L 69.294 35.085 C 65.815 50.992 66.74 65.74 85.675 66.208 C 85.974 66.213 115.974 66.208 115.974 66.208 C 116.732 66.208 117.49 66.013 117.642 65.275 L 124.007 34.956 L 130.421 4.76 C 130.585 4.016 130.086 3.335 129.323 3.335" fill="rgb(255,255,255)"/><path d=" M 46.844 32.896 L 44.062 42.735 L 41.376 51.403 C 41.204 52.003 40.327 52.405 39.707 52.405 L 26.649 52.405 C 16.739 52.405 14.333 44.75 16.739 33.325 C 19.148 21.634 24.1 14.419 33.847 13.678 C 47.17 12.671 50.066 22.085 46.844 32.896 M 55.355 51.913 C 55.355 51.913 61.506 36.951 62.915 28.329 C 64.806 16.761 59.029 0.004 36.676 0.004 C 14.45 0.004 4.797 16.007 1.117 33.404 C -2.561 50.93 2.264 66.298 24.355 66.167 L 58.091 66.05 C 58.713 66.044 59.355 65.546 59.516 64.946 L 62.355 54.117 C 62.513 53.51 62.126 53.007 61.496 53.001 L 58.79 52.992 L 56.056 52.97 C 55.53 52.959 55.223 52.625 55.289 52.168 L 55.355 51.913 Z " fill="rgb(255,255,255)"/><path d=" M 173.073 64.03 C 172.874 65.032 171.876 66.168 170.858 66.168 L 158.787 66.168 C 157.769 66.168 157.114 65.032 157.312 64.036 C 157.312 64.036 162.176 40.547 162.409 39.561 C 162.409 39.561 164.49 30.72 157.943 30.72 L 152.408 30.72 C 151.38 30.72 150.382 31.549 150.171 32.542 L 143.439 64.03 C 143.23 65.028 142.228 66.168 141.212 66.168 L 129.541 66.168 C 128.534 66.168 127.867 65.032 128.082 64.036 L 137.676 18.566 C 137.889 17.568 138.887 16.364 139.903 16.364 C 139.903 16.364 159.967 16.364 164.49 16.364 C 184.305 16.364 178.311 38.512 178.311 38.512 C 178.043 39.479 173.073 64.03 173.073 64.03" fill="rgb(255,255,255)"/><path d=" M 201.651 13.83 C 197.286 13.83 194.092 12.467 195.253 7.049 C 196.421 1.622 200.196 0.268 204.55 0.268 C 208.717 0.268 212.014 1.622 210.843 7.049 C 209.689 12.365 205.909 13.83 201.651 13.83 Z  M 197.785 64.036 C 197.576 65.032 196.563 66.168 195.547 66.168 L 183.378 66.168 C 182.36 66.168 181.719 65.032 181.934 64.045 L 191.746 18.97 C 191.968 17.983 192.964 16.987 193.973 16.987 L 205.8 16.987 C 206.822 16.987 207.474 18.13 207.27 19.128 L 197.785 64.036" fill="rgb(255,255,255)"/><path d=" M 215.71 66.208 C 214.706 66.168 214.074 65.002 214.293 64.006 L 221.842 29.65 C 222.056 28.67 221.41 27.85 220.393 27.85 L 214.582 27.85 C 213.571 27.85 212.929 27.046 213.17 26.054 L 214.806 18.979 C 215.045 17.99 216.074 16.954 217.085 16.954 L 223.45 16.954 C 224.452 16.954 225.464 16.385 225.683 15.377 L 227.591 7.196 C 227.8 6.205 228.807 5.985 229.829 5.985 L 239.357 5.985 C 240.37 5.985 241.025 6.321 240.812 7.313 L 238.959 15.621 C 238.752 16.618 239.407 16.954 240.414 16.954 L 248.535 16.954 C 249.542 16.954 250.183 17.99 249.953 18.979 L 248.289 26.1 C 248.067 27.092 247.039 27.936 246.027 27.936 L 238.522 27.936 C 237.51 27.936 236.504 28.822 236.273 29.815 L 228.725 64.437 C 228.521 65.43 227.514 66.239 226.507 66.206 L 215.71 66.208" fill="rgb(255,255,255)"/></g></g></svg>